<svg width="24" height="25" viewBox="0 0 24 25" fill="none" xmlns="http://www.w3.org/2000/svg">
<g id="arrow_outward">
<mask id="mask0_2552_684" style="mask-type:alpha" maskUnits="userSpaceOnUse" x="0" y="0" width="24" height="25">
<rect id="Bounding box" y="0.5" width="24" height="24" fill="#D9D9D9"/>
</mask>
<g mask="url(#mask0_2552_684)">
<path id="arrow_outward_2" d="M16 8.9L7.10005 17.8C6.91672 17.9833 6.68338 18.075 6.40005 18.075C6.11672 18.075 5.88338 17.9833 5.70005 17.8C5.51672 17.6167 5.42505 17.3833 5.42505 17.1C5.42505 16.8167 5.51672 16.5833 5.70005 16.4L14.6 7.5H7.00005C6.71672 7.5 6.47922 7.40417 6.28755 7.2125C6.09588 7.02083 6.00005 6.78333 6.00005 6.5C6.00005 6.21667 6.09588 5.97917 6.28755 5.7875C6.47922 5.59583 6.71672 5.5 7.00005 5.5H17C17.2834 5.5 17.5209 5.59583 17.7125 5.7875C17.9042 5.97917 18 6.21667 18 6.5V16.5C18 16.7833 17.9042 17.0208 17.7125 17.2125C17.5209 17.4042 17.2834 17.5 17 17.5C16.7167 17.5 16.4792 17.4042 16.2875 17.2125C16.0959 17.0208 16 16.7833 16 16.5V8.9Z" fill="white"/>
</g>
</g>
</svg>
